<svg width="134" height="84" viewBox="0 0 134 84" fill="none" xmlns="http://www.w3.org/2000/svg">
<path d="M82.8378 35.7828C86.4776 30.1037 84.751 22.5957 78.9813 19.0131C73.2117 15.4306 65.5838 17.1301 61.944 22.8091L44.7691 49.6066C41.1293 55.2856 42.856 62.7936 48.6256 66.3762C54.3953 69.9588 62.0231 68.2593 65.6629 62.5803L82.8378 35.7828Z" fill="#53B551" fill-opacity="0.69"/>
<g filter="url(#filter0_d_229_63)">
<path d="M46.905 40.9406C50.5447 35.2616 48.8181 27.7536 43.0485 24.171C37.2788 20.5885 29.6509 22.288 26.0112 27.967L8.83625 54.7645C5.19648 60.4435 6.92311 67.9515 12.6928 71.5341C18.4624 75.1167 26.0903 73.4172 29.73 67.7382L46.905 40.9406Z" fill="#53B551"/>
</g>
<g filter="url(#filter1_d_229_63)">
<path d="M121.017 26.9407C124.657 21.2616 122.93 13.7536 117.16 10.171C111.391 6.58846 103.763 8.28796 100.123 13.967L82.9481 40.7645C79.3083 46.4435 81.0349 53.9515 86.8046 57.5341C92.5743 61.1167 100.202 59.4172 103.842 53.7382L121.017 26.9407Z" fill="#53B551"/>
</g>
<path d="M114.046 47.8947C114.046 47.9474 115.764 47.8947 114.046 50.0916C114.26 50.2603 114.021 50.6748 114.106 51.0753L114.17 51.3916L119.065 51.4232C121.754 51.4337 123.961 51.4759 123.961 51.518C123.961 51.5496 123.746 51.8343 123.489 52.1399L123.017 52.7091L123.511 53.8159C123.789 54.4273 124.035 54.9227 124.068 54.9122C124.131 54.9017 128.395 49.8737 128.437 49.7472C128.459 49.6945 125.074 49.6523 120.918 49.6523C116.656 49.6523 112.757 50.0916 114.046 47.8947Z" fill="#53B551"/>
<path d="M120.715 52.1611L119.762 52.1927L119.441 52.8989C119.269 53.2889 118.733 54.3851 118.273 55.3338C117.802 56.2825 117.437 57.1047 117.448 57.1574C117.469 57.2101 118.155 56.5144 118.979 55.5973L120.468 53.9319L120.597 54.2481C120.672 54.4167 121.604 56.5249 122.675 58.9283C123.746 61.3316 124.646 63.3659 124.678 63.4292C124.72 63.5346 123.842 63.5663 120.758 63.5873C118.573 63.6084 116.784 63.5979 116.784 63.5663C116.784 63.5346 117.823 62.2908 119.087 60.8045C120.351 59.3078 121.39 58.0323 121.39 57.9691C121.39 57.8109 120.49 55.766 120.426 55.7765C120.393 55.7765 119.076 57.326 117.48 59.2129C115.895 61.0997 114.075 63.2395 113.442 63.9668C112.81 64.6941 109.321 70.3033 110.18 69.8639C110.201 69.885 112.175 65.4952 115.764 65.4846C120.926 65.4846 125.449 65.3793 125.535 65.4846C125.599 65.5585 125.771 66.0117 125.931 66.4861C126.242 67.4136 126.502 68.1064 120.918 72.9396C120.854 73.1504 125.792 69.0053 127.623 68.9631C128.641 68.942 129.487 68.9104 129.508 68.8894C128.588 68.7945 127.838 65.1158 125.759 60.5305C123.457 55.4498 121.915 52.1821 121.818 52.1611C121.733 52.14 121.229 52.14 120.715 52.1611Z" fill="#53B551"/>
<defs>
<filter id="filter0_d_229_63" x="2.92969" y="22.2943" width="49.8818" height="59.1165" filterUnits="userSpaceOnUse" color-interpolation-filters="sRGB">
<feFlood flood-opacity="0" result="BackgroundImageFix"/>
<feColorMatrix in="SourceAlpha" type="matrix" values="0 0 0 0 0 0 0 0 0 0 0 0 0 0 0 0 0 0 127 0" result="hardAlpha"/>
<feOffset dy="4"/>
<feGaussianBlur stdDeviation="2"/>
<feComposite in2="hardAlpha" operator="out"/>
<feColorMatrix type="matrix" values="0 0 0 0 0 0 0 0 0 0 0 0 0 0 0 0 0 0 0.25 0"/>
<feBlend mode="normal" in2="BackgroundImageFix" result="effect1_dropShadow_229_63"/>
<feBlend mode="normal" in="SourceGraphic" in2="effect1_dropShadow_229_63" result="shape"/>
</filter>
<filter id="filter1_d_229_63" x="77.0415" y="8.29434" width="49.8818" height="59.1165" filterUnits="userSpaceOnUse" color-interpolation-filters="sRGB">
<feFlood flood-opacity="0" result="BackgroundImageFix"/>
<feColorMatrix in="SourceAlpha" type="matrix" values="0 0 0 0 0 0 0 0 0 0 0 0 0 0 0 0 0 0 127 0" result="hardAlpha"/>
<feOffset dy="4"/>
<feGaussianBlur stdDeviation="2"/>
<feComposite in2="hardAlpha" operator="out"/>
<feColorMatrix type="matrix" values="0 0 0 0 0 0 0 0 0 0 0 0 0 0 0 0 0 0 0.25 0"/>
<feBlend mode="normal" in2="BackgroundImageFix" result="effect1_dropShadow_229_63"/>
<feBlend mode="normal" in="SourceGraphic" in2="effect1_dropShadow_229_63" result="shape"/>
</filter>
</defs>
</svg>
